<svg width="20" height="16" viewBox="0 0 20 16" fill="none" xmlns="http://www.w3.org/2000/svg">
  <path d="M8.73 1.073C9.15 1.024 9.58 1 10 1C14.66 1 18.4 3.903 20 8C19.61 8.997 19.09 9.935 18.44 10.788M4.52 2.519C2.48 3.764 0.9 5.693 0 8C1.6 12.097 5.34 15 10 15C11.93 15.01 13.83 14.484 15.48 13.48M7.88 5.88C7.6 6.159 7.38 6.489 7.23 6.853C7.08 7.217 7 7.608 7 8.002C7 8.396 7.08 8.786 7.23 9.15C7.38 9.514 7.6 9.844 7.88 10.123C8.16 10.402 8.49 10.623 8.85 10.773C9.22 10.924 9.61 11.002 10 11.002C10.4 11.002 10.79 10.924 11.15 10.773C11.51 10.623 11.84 10.402 12.12 10.123" stroke="#64748B" strokeWidth="2" strokeLinecap="round" strokeLinejoin="round"/>
  <path d="M2 0L18 16" stroke="#64748B" strokeWidth="2" strokeLinecap="round"/>
</svg>
