<svg width="18" height="20" viewBox="0 0 18 20" fill="none" xmlns="http://www.w3.org/2000/svg">
  <path d="M4.5 7.778H2.25C1.653 7.778 1.081 8.012 0.659 8.429C0.237 8.845 0 9.411 0 10V17.778C0 18.367 0.237 18.932 0.659 19.349C1.081 19.766 1.653 20 2.25 20H15.75C16.347 20 16.919 19.766 17.341 19.349C17.763 18.932 18 18.367 18 17.778V10C18 9.411 17.763 8.845 17.341 8.429C16.919 8.012 16.347 7.778 15.75 7.778H13.5M4.5 7.778V4.444C4.5 3.266 4.974 2.135 5.818 1.302C6.662 0.468 7.807 0 9 0C10.193 0 11.338 0.468 12.182 1.302C13.026 2.135 13.5 3.266 13.5 4.444V7.778M4.5 7.778H13.5M9 12.222V15.556" stroke="#64748B" strokeWidth="2" strokeLinecap="round" strokeLinejoin="round"/>
</svg>
