<svg width="20" height="20" viewBox="0 0 20 20" fill="none" xmlns="http://www.w3.org/2000/svg">
  <path d="M14.831 11.605C16.309 12.302 17.568 13.389 18.475 14.747C19.382 16.106 19.902 17.686 19.979 19.318C19.99 19.467 19.97 19.617 19.921 19.759C19.873 19.901 19.797 20.032 19.697 20.143C19.597 20.255 19.476 20.346 19.341 20.411C19.206 20.475 19.059 20.512 18.91 20.519C18.76 20.526 18.61 20.503 18.47 20.451C18.329 20.4 18.2 20.321 18.09 20.219C17.981 20.116 17.893 19.994 17.831 19.857C17.77 19.72 17.736 19.573 17.732 19.423C17.651 17.69 16.904 16.055 15.649 14.857C14.393 13.659 12.725 12.991 10.99 12.991C9.255 12.991 7.586 13.659 6.331 14.857C5.075 16.055 4.329 17.69 4.247 19.423C4.227 19.716 4.093 19.99 3.873 20.186C3.654 20.381 3.366 20.483 3.072 20.469C2.779 20.456 2.502 20.327 2.302 20.112C2.101 19.897 1.993 19.612 2 19.318C2.077 17.686 2.597 16.106 3.504 14.748C4.41 13.389 5.67 12.302 7.147 11.605C6.2 10.815 5.52 9.754 5.198 8.564C4.877 7.374 4.929 6.114 5.349 4.955C5.769 3.796 6.536 2.795 7.545 2.087C8.554 1.38 9.757 1 10.989 1C12.222 1 13.424 1.38 14.433 2.087C15.442 2.795 16.209 3.796 16.629 4.955C17.049 6.114 17.101 7.374 16.78 8.564C16.458 9.754 15.778 10.815 14.831 11.605ZM14.74 6.995C14.74 6.001 14.345 5.047 13.641 4.344C12.938 3.641 11.984 3.245 10.99 3.245C9.995 3.245 9.041 3.641 8.338 4.344C7.635 5.047 7.24 6.001 7.24 6.995C7.24 7.99 7.635 8.944 8.338 9.647C9.041 10.35 9.995 10.745 10.99 10.745C11.984 10.745 12.938 10.35 13.641 9.647C14.345 8.944 14.74 7.99 14.74 6.995Z" fill="#64748B"/>
</svg>
