<svg width="34" height="34" viewBox="0 0 34 34" fill="none" xmlns="http://www.w3.org/2000/svg">
<path d="M27.3661 23.2387C26.535 22.4069 25.5639 21.7281 24.4973 21.2332C26.0014 20.0146 26.961 18.1553 26.961 16.0701C26.961 12.3912 23.8931 9.37304 20.2141 9.42949C16.5917 9.48594 13.6731 12.4377 13.6731 16.0701C13.6731 18.1553 14.636 20.0146 16.1368 21.2332C15.07 21.7277 14.0989 22.4066 13.2681 23.2387C11.4552 25.0549 10.4259 27.4521 10.3595 30.0088C10.3586 30.0442 10.3648 30.0795 10.3777 30.1125C10.3907 30.1455 10.4101 30.1755 10.4349 30.2009C10.4596 30.2263 10.4892 30.2465 10.5219 30.2602C10.5545 30.274 10.5896 30.2811 10.6251 30.2811H12.4845C12.6272 30.2811 12.7468 30.1682 12.7501 30.0254C12.8132 28.0996 13.5934 26.2967 14.9647 24.9287C15.6664 24.2233 16.5011 23.664 17.4204 23.2833C18.3397 22.9026 19.3254 22.708 20.3204 22.7107C22.3425 22.7107 24.245 23.4977 25.6761 24.9287C27.044 26.2967 27.8243 28.0996 27.8907 30.0254C27.894 30.1682 28.0136 30.2811 28.1563 30.2811H30.0157C30.0512 30.2811 30.0862 30.274 30.1189 30.2602C30.1516 30.2465 30.1812 30.2263 30.2059 30.2009C30.2307 30.1755 30.2501 30.1455 30.2631 30.1125C30.276 30.0795 30.2822 30.0442 30.2813 30.0088C30.2149 27.4521 29.1856 25.0549 27.3661 23.2387ZM20.3204 20.3201C19.1848 20.3201 18.1157 19.8785 17.3155 19.075C16.9139 18.6766 16.5967 18.2014 16.3828 17.6777C16.1689 17.154 16.0626 16.5926 16.0704 16.027C16.0804 14.9379 16.5153 13.8854 17.2757 13.1051C18.0725 12.2883 19.1384 11.8334 20.2772 11.8201C21.4028 11.8102 22.4952 12.2484 23.2987 13.0353C24.1222 13.8422 24.5737 14.9213 24.5737 16.0701C24.5737 17.2057 24.1321 18.2715 23.3286 19.075C22.9344 19.4711 22.4655 19.7851 21.9492 19.9988C21.4328 20.2125 20.8792 20.3217 20.3204 20.3201ZM12.003 16.9467C11.9731 16.6578 11.9565 16.3656 11.9565 16.0701C11.9565 15.5422 12.0063 15.0275 12.0993 14.5262C12.1225 14.4066 12.0595 14.2838 11.9499 14.234C11.4983 14.0314 11.0833 13.7525 10.7247 13.4006C10.3021 12.9909 9.96965 12.4976 9.7484 11.9522C9.52716 11.4068 9.42203 10.8213 9.43973 10.233C9.46961 9.16719 9.89793 8.15449 10.645 7.39082C11.4651 6.55078 12.5675 6.09258 13.7395 6.10586C14.7987 6.11582 15.8214 6.52422 16.595 7.24804C16.8573 7.49375 17.0831 7.76601 17.2723 8.0582C17.3388 8.16113 17.4682 8.20429 17.5811 8.16445C18.1655 7.96191 18.7831 7.81914 19.4173 7.75273C19.6032 7.73281 19.7095 7.53359 19.6264 7.36758C18.5473 5.23261 16.3427 3.7584 13.7927 3.71855C10.1104 3.66211 7.04247 6.68027 7.04247 10.3559C7.04247 12.441 8.00204 14.3004 9.50614 15.5189C8.45028 16.007 7.47743 16.6811 6.63407 17.5244C4.81454 19.3406 3.78524 21.7379 3.71883 24.2978C3.71795 24.3333 3.72416 24.3685 3.73711 24.4015C3.75007 24.4345 3.76949 24.4646 3.79425 24.49C3.819 24.5154 3.84858 24.5355 3.88125 24.5493C3.91392 24.563 3.94901 24.5701 3.98446 24.5701H5.84715C5.98993 24.5701 6.10946 24.4572 6.11278 24.3144C6.17586 22.3887 6.95614 20.5857 8.32743 19.2178C9.3036 18.2416 10.4989 17.5643 11.8038 17.2355C11.9333 17.2023 12.0196 17.0795 12.003 16.9467Z" fill="#F8FAFC"/>
</svg>
