<svg width="34" height="34" viewBox="0 0 34 34" fill="none" xmlns="http://www.w3.org/2000/svg">
<path d="M28.1914 17.9351C27.9643 17.6766 27.8391 17.3443 27.8391 17.0001C27.8391 16.656 27.9643 16.3237 28.1914 16.0651L30.0048 14.0251C30.2046 13.8022 30.3287 13.5218 30.3592 13.224C30.3898 12.9262 30.3252 12.6264 30.1748 12.3676L27.3414 7.46597C27.1925 7.20746 26.9659 7.00254 26.6937 6.88044C26.4215 6.75834 26.1177 6.72528 25.8256 6.78597L23.1623 7.3243C22.8234 7.39433 22.4706 7.33789 22.1704 7.16564C21.8703 6.99339 21.6436 6.71724 21.5331 6.3893L20.6689 3.7968C20.5739 3.51542 20.3928 3.27103 20.1513 3.09816C19.9098 2.9253 19.6201 2.8327 19.3231 2.83347H13.6564C13.3475 2.81735 13.0418 2.90278 12.786 3.07673C12.5302 3.25068 12.3383 3.50358 12.2398 3.7968L11.4464 6.3893C11.3359 6.71724 11.1092 6.99339 10.8091 7.16564C10.509 7.33789 10.1562 7.39433 9.81727 7.3243L7.08311 6.78597C6.80622 6.74684 6.52395 6.79053 6.27185 6.91154C6.01975 7.03255 5.8091 7.22546 5.66644 7.46597L2.8331 12.3676C2.67892 12.6236 2.60959 12.9217 2.63503 13.2194C2.66047 13.5171 2.77939 13.7991 2.97477 14.0251L4.77394 16.0651C5.00106 16.3237 5.12631 16.656 5.12631 17.0001C5.12631 17.3443 5.00106 17.6766 4.77394 17.9351L2.97477 19.9751C2.77939 20.2012 2.66047 20.4832 2.63503 20.7809C2.60959 21.0786 2.67892 21.3767 2.8331 21.6326L5.66644 26.5343C5.81533 26.7928 6.04202 26.9977 6.31421 27.1198C6.5864 27.2419 6.89019 27.275 7.18227 27.2143L9.8456 26.676C10.1845 26.6059 10.5373 26.6624 10.8374 26.8346C11.1376 27.0069 11.3643 27.283 11.4748 27.611L12.3389 30.2035C12.4375 30.4967 12.6293 30.7496 12.8852 30.9235C13.141 31.0975 13.4467 31.1829 13.7556 31.1668H19.4223C19.7193 31.1676 20.009 31.075 20.2505 30.9021C20.492 30.7292 20.6731 30.4848 20.7681 30.2035L21.6323 27.611C21.7428 27.283 21.9695 27.0069 22.2696 26.8346C22.5697 26.6624 22.9225 26.6059 23.2614 26.676L25.9248 27.2143C26.2169 27.275 26.5206 27.2419 26.7928 27.1198C27.065 26.9977 27.2917 26.7928 27.4406 26.5343L30.2739 21.6326C30.4244 21.3738 30.4889 21.074 30.4584 20.7763C30.4278 20.4785 30.3038 20.198 30.1039 19.9751L28.1914 17.9351ZM26.0806 19.8335L27.2139 21.1085L25.4006 24.2535L23.7289 23.9135C22.7086 23.7049 21.6472 23.8782 20.7463 24.4005C19.8453 24.9228 19.1675 25.7577 18.8414 26.7468L18.3031 28.3335H14.6764L14.1664 26.7185C13.8404 25.7294 13.1626 24.8945 12.2616 24.3722C11.3606 23.8499 10.2993 23.6766 9.27894 23.8851L7.60727 24.2251L5.76561 21.0943L6.89894 19.8193C7.59587 19.0401 7.98118 18.0314 7.98118 16.986C7.98118 15.9406 7.59587 14.9318 6.89894 14.1526L5.76561 12.8776L7.57894 9.76097L9.2506 10.101C10.2709 10.3095 11.3323 10.1362 12.2333 9.61392C13.1342 9.09162 13.8121 8.25669 14.1381 7.26764L14.6764 5.6668H18.3031L18.8414 7.2818C19.1675 8.27086 19.8453 9.10578 20.7463 9.62808C21.6472 10.1504 22.7086 10.3237 23.7289 10.1151L25.4006 9.77514L27.2139 12.9201L26.0806 14.1951C25.3915 14.9725 25.011 15.9754 25.011 17.0143C25.011 18.0532 25.3915 19.0561 26.0806 19.8335ZM16.4898 11.3335C15.369 11.3335 14.2734 11.6658 13.3415 12.2885C12.4097 12.9111 11.6834 13.7961 11.2545 14.8316C10.8256 15.867 10.7133 17.0064 10.932 18.1056C11.1506 19.2049 11.6903 20.2146 12.4828 21.0071C13.2753 21.7996 14.285 22.3393 15.3843 22.5579C16.4835 22.7766 17.6229 22.6644 18.6583 22.2355C19.6938 21.8066 20.5788 21.0802 21.2014 20.1484C21.8241 19.2165 22.1564 18.1209 22.1564 17.0001C22.1564 15.4972 21.5594 14.0559 20.4967 12.9932C19.434 11.9305 17.9927 11.3335 16.4898 11.3335ZM16.4898 19.8335C15.9294 19.8335 15.3816 19.6673 14.9157 19.356C14.4497 19.0446 14.0866 18.6021 13.8721 18.0844C13.6577 17.5667 13.6016 16.997 13.7109 16.4474C13.8202 15.8978 14.0901 15.3929 14.4863 14.9967C14.8826 14.6004 15.3874 14.3306 15.937 14.2212C16.4866 14.1119 17.0563 14.168 17.574 14.3825C18.0918 14.5969 18.5343 14.9601 18.8456 15.426C19.1569 15.892 19.3231 16.4398 19.3231 17.0001C19.3231 17.7516 19.0246 18.4723 18.4932 19.0036C17.9619 19.535 17.2412 19.8335 16.4898 19.8335Z" fill="#787878"/>
</svg>
