<svg width="34" height="34" viewBox="0 0 34 34" fill="none" xmlns="http://www.w3.org/2000/svg">
<path d="M28.1917 17.9351C27.9645 17.6766 27.8393 17.3443 27.8393 17.0001C27.8393 16.656 27.9645 16.3237 28.1917 16.0651L30.005 14.0251C30.2048 13.8022 30.3289 13.5218 30.3594 13.224C30.39 12.9262 30.3254 12.6264 30.175 12.3676L27.3417 7.46597C27.1928 7.20746 26.9661 7.00254 26.6939 6.88044C26.4217 6.75834 26.1179 6.72528 25.8258 6.78597L23.1625 7.3243C22.8236 7.39433 22.4708 7.33789 22.1707 7.16564C21.8705 6.99339 21.6438 6.71724 21.5333 6.3893L20.6692 3.7968C20.5741 3.51542 20.3931 3.27103 20.1516 3.09816C19.9101 2.9253 19.6203 2.8327 19.3233 2.83347H13.6567C13.3477 2.81735 13.042 2.90278 12.7862 3.07673C12.5304 3.25068 12.3386 3.50358 12.24 3.7968L11.4467 6.3893C11.3362 6.71724 11.1095 6.99339 10.8093 7.16564C10.5092 7.33789 10.1564 7.39433 9.8175 7.3243L7.08333 6.78597C6.80645 6.74684 6.52417 6.79053 6.27208 6.91154C6.01998 7.03255 5.80933 7.22546 5.66667 7.46597L2.83333 12.3676C2.67914 12.6236 2.60982 12.9217 2.63526 13.2194C2.6607 13.5171 2.77962 13.7991 2.975 14.0251L4.77417 16.0651C5.00129 16.3237 5.12654 16.656 5.12654 17.0001C5.12654 17.3443 5.00129 17.6766 4.77417 17.9351L2.975 19.9751C2.77962 20.2012 2.6607 20.4832 2.63526 20.7809C2.60982 21.0786 2.67914 21.3767 2.83333 21.6326L5.66667 26.5343C5.81556 26.7928 6.04225 26.9977 6.31444 27.1198C6.58663 27.2419 6.89042 27.275 7.1825 27.2143L9.84583 26.676C10.1847 26.6059 10.5375 26.6624 10.8377 26.8346C11.1378 27.0069 11.3645 27.283 11.475 27.611L12.3392 30.2035C12.4377 30.4967 12.6296 30.7496 12.8854 30.9235C13.1412 31.0975 13.4469 31.1829 13.7558 31.1668H19.4225C19.7195 31.1676 20.0092 31.075 20.2507 30.9021C20.4922 30.7292 20.6733 30.4848 20.7683 30.2035L21.6325 27.611C21.743 27.283 21.9697 27.0069 22.2698 26.8346C22.57 26.6624 22.9228 26.6059 23.2617 26.676L25.925 27.2143C26.2171 27.275 26.5209 27.2419 26.7931 27.1198C27.0653 26.9977 27.2919 26.7928 27.4408 26.5343L30.2742 21.6326C30.4246 21.3738 30.4891 21.074 30.4586 20.7763C30.4281 20.4785 30.304 20.198 30.1042 19.9751L28.1917 17.9351ZM26.0808 19.8335L27.2142 21.1085L25.4008 24.2535L23.7292 23.9135C22.7089 23.7049 21.6475 23.8782 20.7465 24.4005C19.8455 24.9228 19.1677 25.7577 18.8417 26.7468L18.3033 28.3335H14.6767L14.1667 26.7185C13.8406 25.7294 13.1628 24.8945 12.2618 24.3722C11.3609 23.8499 10.2995 23.6766 9.27917 23.8851L7.6075 24.2251L5.76583 21.0943L6.89917 19.8193C7.5961 19.0401 7.9814 18.0314 7.9814 16.986C7.9814 15.9406 7.5961 14.9318 6.89917 14.1526L5.76583 12.8776L7.57917 9.76097L9.25083 10.101C10.2711 10.3095 11.3325 10.1362 12.2335 9.61392C13.1345 9.09162 13.8123 8.25669 14.1383 7.26764L14.6767 5.6668H18.3033L18.8417 7.2818C19.1677 8.27086 19.8455 9.10578 20.7465 9.62808C21.6475 10.1504 22.7089 10.3237 23.7292 10.1151L25.4008 9.77514L27.2142 12.9201L26.0808 14.1951C25.3917 14.9725 25.0112 15.9754 25.0112 17.0143C25.0112 18.0532 25.3917 19.0561 26.0808 19.8335ZM16.49 11.3335C15.3692 11.3335 14.2736 11.6658 13.3418 12.2885C12.4099 12.9111 11.6836 13.7961 11.2547 14.8316C10.8258 15.867 10.7136 17.0064 10.9322 18.1056C11.1509 19.2049 11.6906 20.2146 12.4831 21.0071C13.2756 21.7996 14.2853 22.3393 15.3845 22.5579C16.4837 22.7766 17.6231 22.6644 18.6585 22.2355C19.694 21.8066 20.579 21.0802 21.2017 20.1484C21.8243 19.2165 22.1567 18.1209 22.1567 17.0001C22.1567 15.4972 21.5596 14.0559 20.4969 12.9932C19.4342 11.9305 17.9929 11.3335 16.49 11.3335ZM16.49 19.8335C15.9296 19.8335 15.3818 19.6673 14.9159 19.356C14.4499 19.0446 14.0868 18.6021 13.8723 18.0844C13.6579 17.5667 13.6018 16.997 13.7111 16.4474C13.8204 15.8978 14.0903 15.3929 14.4865 14.9967C14.8828 14.6004 15.3876 14.3306 15.9372 14.2212C16.4869 14.1119 17.0565 14.168 17.5743 14.3825C18.092 14.5969 18.5345 14.9601 18.8458 15.426C19.1572 15.892 19.3233 16.4398 19.3233 17.0001C19.3233 17.7516 19.0248 18.4723 18.4935 19.0036C17.9621 19.535 17.2414 19.8335 16.49 19.8335Z" fill="#F8FAFC"/>
</svg>
