<svg width="34" height="34" viewBox="0 0 34 34" fill="none" xmlns="http://www.w3.org/2000/svg">
<path d="M8.50001 26.9168H12.75V19.8335C12.75 19.4321 12.886 19.0959 13.158 18.8248C13.43 18.5538 13.7662 18.4178 14.1667 18.4168H19.8333C20.2347 18.4168 20.5714 18.5528 20.8434 18.8248C21.1154 19.0968 21.251 19.4331 21.25 19.8335V26.9168H25.5V14.1668L17 7.79183L8.50001 14.1668V26.9168ZM5.66667 26.9168V14.1668C5.66667 13.7182 5.76725 13.2932 5.96842 12.8918C6.16959 12.4904 6.44678 12.1599 6.80001 11.9002L15.3 5.52516C15.7958 5.14739 16.3625 4.9585 17 4.9585C17.6375 4.9585 18.2042 5.14739 18.7 5.52516L27.2 11.9002C27.5542 12.1599 27.8318 12.4904 28.033 12.8918C28.2342 13.2932 28.3343 13.7182 28.3333 14.1668V26.9168C28.3333 27.696 28.0557 28.3632 27.5003 28.9186C26.945 29.4739 26.2782 29.7511 25.5 29.7502H19.8333C19.432 29.7502 19.0957 29.6142 18.8247 29.3422C18.5536 29.0702 18.4176 28.7339 18.4167 28.3335V21.2502H15.5833V28.3335C15.5833 28.7349 15.4473 29.0716 15.1753 29.3436C14.9033 29.6156 14.5671 29.7511 14.1667 29.7502H8.50001C7.72084 29.7502 7.05406 29.473 6.49967 28.9186C5.94528 28.3642 5.66762 27.6969 5.66667 26.9168Z" fill="#787878"/>
</svg>
