<svg width="32" height="32" viewBox="0 0 32 32" fill="none" xmlns="http://www.w3.org/2000/svg">
<path d="M16.8481 3.55212C16.6231 3.3274 16.3181 3.20117 16.0001 3.20117C15.6821 3.20117 15.3771 3.3274 15.1521 3.55212L11.5521 7.15212C11.3401 7.3796 11.2248 7.68047 11.2302 7.99135C11.2357 8.30223 11.3617 8.59885 11.5815 8.81871C11.8014 9.03857 12.098 9.16451 12.4089 9.17C12.7198 9.17548 13.0206 9.06008 13.2481 8.84812L14.8001 7.29612V11.6001C14.8001 11.9184 14.9265 12.2236 15.1516 12.4486C15.3766 12.6737 15.6819 12.8001 16.0001 12.8001C16.3184 12.8001 16.6236 12.6737 16.8486 12.4486C17.0737 12.2236 17.2001 11.9184 17.2001 11.6001V7.29612L18.7521 8.84812C18.862 8.96601 18.9945 9.06058 19.1417 9.12617C19.2889 9.19175 19.4478 9.22702 19.6089 9.22986C19.77 9.2327 19.9301 9.20307 20.0795 9.14271C20.2289 9.08236 20.3646 8.99253 20.4786 8.87858C20.5925 8.76463 20.6824 8.62889 20.7427 8.47947C20.8031 8.33005 20.8327 8.17 20.8299 8.00888C20.827 7.84776 20.7918 7.68885 20.7262 7.54165C20.6606 7.39446 20.566 7.26197 20.4481 7.15212L16.8481 3.55212ZM3.55212 15.1521C3.3274 15.3771 3.20117 15.6821 3.20117 16.0001C3.20117 16.3181 3.3274 16.6231 3.55212 16.8481L7.15212 20.4481C7.3796 20.6601 7.68047 20.7755 7.99135 20.77C8.30223 20.7645 8.59885 20.6386 8.81871 20.4187C9.03857 20.1988 9.16451 19.9022 9.17 19.5914C9.17548 19.2805 9.06008 18.9796 8.84812 18.7521L7.29612 17.2001H11.6001C11.9184 17.2001 12.2236 17.0737 12.4486 16.8486C12.6737 16.6236 12.8001 16.3184 12.8001 16.0001C12.8001 15.6819 12.6737 15.3766 12.4486 15.1516C12.2236 14.9265 11.9184 14.8001 11.6001 14.8001H7.29612L8.84812 13.2481C9.06008 13.0206 9.17548 12.7198 9.17 12.4089C9.16451 12.098 9.03857 11.8014 8.81871 11.5815C8.59885 11.3617 8.30223 11.2357 7.99135 11.2302C7.68047 11.2248 7.3796 11.3401 7.15212 11.5521L3.55212 15.1521ZM16.8481 28.4481L20.4481 24.8481C20.566 24.7383 20.6606 24.6058 20.7262 24.4586C20.7918 24.3114 20.827 24.1525 20.8299 23.9914C20.8327 23.8302 20.8031 23.6702 20.7427 23.5208C20.6824 23.3713 20.5925 23.2356 20.4786 23.1217C20.3646 23.0077 20.2289 22.9179 20.0795 22.8575C19.9301 22.7972 19.77 22.7675 19.6089 22.7704C19.4478 22.7732 19.2889 22.8085 19.1417 22.8741C18.9945 22.9397 18.862 23.0342 18.7521 23.1521L17.2001 24.7041V20.4001C17.2001 20.0819 17.0737 19.7766 16.8486 19.5516C16.6236 19.3265 16.3184 19.2001 16.0001 19.2001C15.6819 19.2001 15.3766 19.3265 15.1516 19.5516C14.9265 19.7766 14.8001 20.0819 14.8001 20.4001V24.7041L13.2481 23.1521C13.0206 22.9401 12.7198 22.8247 12.4089 22.8302C12.098 22.8357 11.8014 22.9617 11.5815 23.1815C11.3617 23.4014 11.2357 23.698 11.2302 24.0089C11.2248 24.3198 11.3401 24.6206 11.5521 24.8481L15.1521 28.4481C15.3771 28.6728 15.6821 28.7991 16.0001 28.7991C16.3181 28.7991 16.6231 28.6728 16.8481 28.4481ZM24.8481 11.5521L28.4481 15.1521C28.6728 15.3771 28.7991 15.6821 28.7991 16.0001C28.7991 16.3181 28.6728 16.6231 28.4481 16.8481L24.8481 20.4481C24.7383 20.566 24.6058 20.6606 24.4586 20.7262C24.3114 20.7918 24.1525 20.827 23.9914 20.8299C23.8302 20.8327 23.6702 20.8031 23.5208 20.7427C23.3713 20.6824 23.2356 20.5925 23.1217 20.4786C23.0077 20.3646 22.9179 20.2289 22.8575 20.0795C22.7972 19.9301 22.7675 19.77 22.7704 19.6089C22.7732 19.4478 22.8085 19.2889 22.8741 19.1417C22.9397 18.9945 23.0342 18.862 23.1521 18.7521L24.7041 17.2001H20.4001C20.0819 17.2001 19.7766 17.0737 19.5516 16.8486C19.3265 16.6236 19.2001 16.3184 19.2001 16.0001C19.2001 15.6819 19.3265 15.3766 19.5516 15.1516C19.7766 14.9265 20.0819 14.8001 20.4001 14.8001H24.7041L23.1521 13.2481C22.9401 13.0206 22.8247 12.7198 22.8302 12.4089C22.8357 12.098 22.9617 11.8014 23.1815 11.5815C23.4014 11.3617 23.698 11.2357 24.0089 11.2302C24.3198 11.2248 24.6206 11.3401 24.8481 11.5521Z" fill="#E2E8F0"/>
</svg>
