<svg width="34" height="34" viewBox="0 0 34 34" fill="none" xmlns="http://www.w3.org/2000/svg">
<path d="M27.366 23.2387C26.5349 22.4069 25.5638 21.7281 24.4973 21.2332C26.0014 20.0146 26.9609 18.1553 26.9609 16.0701C26.9609 12.3912 23.893 9.37304 20.2141 9.42949C16.5916 9.48594 13.6731 12.4377 13.6731 16.0701C13.6731 18.1553 14.6359 20.0146 16.1367 21.2332C15.0699 21.7277 14.0988 22.4066 13.268 23.2387C11.4551 25.0549 10.4258 27.4521 10.3594 30.0088C10.3585 30.0442 10.3647 30.0795 10.3777 30.1125C10.3906 30.1455 10.41 30.1755 10.4348 30.2009C10.4595 30.2263 10.4891 30.2465 10.5218 30.2602C10.5545 30.274 10.5896 30.2811 10.625 30.2811H12.4844C12.6272 30.2811 12.7467 30.1682 12.75 30.0254C12.8131 28.0996 13.5934 26.2967 14.9647 24.9287C15.6664 24.2233 16.501 23.664 17.4203 23.2833C18.3396 22.9026 19.3253 22.708 20.3203 22.7107C22.3424 22.7107 24.2449 23.4977 25.676 24.9287C27.044 26.2967 27.8242 28.0996 27.8906 30.0254C27.894 30.1682 28.0135 30.2811 28.1563 30.2811H30.0156C30.0511 30.2811 30.0862 30.274 30.1188 30.2602C30.1515 30.2465 30.1811 30.2263 30.2058 30.2009C30.2306 30.1755 30.25 30.1455 30.263 30.1125C30.2759 30.0795 30.2821 30.0442 30.2813 30.0088C30.2149 27.4521 29.1856 25.0549 27.366 23.2387ZM20.3203 20.3201C19.1848 20.3201 18.1156 19.8785 17.3154 19.075C16.9139 18.6766 16.5966 18.2014 16.3827 17.6777C16.1688 17.154 16.0626 16.5926 16.0703 16.027C16.0803 14.9379 16.5152 13.8854 17.2756 13.1051C18.0725 12.2883 19.1383 11.8334 20.2772 11.8201C21.4027 11.8102 22.4951 12.2484 23.2986 13.0353C24.1221 13.8422 24.5736 14.9213 24.5736 16.0701C24.5736 17.2057 24.132 18.2715 23.3285 19.075C22.9343 19.4711 22.4655 19.7851 21.9491 19.9988C21.4328 20.2125 20.8792 20.3217 20.3203 20.3201ZM12.0029 16.9467C11.9731 16.6578 11.9565 16.3656 11.9565 16.0701C11.9565 15.5422 12.0063 15.0275 12.0992 14.5262C12.1225 14.4066 12.0594 14.2838 11.9498 14.234C11.4982 14.0314 11.0832 13.7525 10.7246 13.4006C10.3021 12.9909 9.96957 12.4976 9.74833 11.9522C9.52708 11.4068 9.42196 10.8213 9.43965 10.233C9.46954 9.16719 9.89786 8.15449 10.6449 7.39082C11.465 6.55078 12.5674 6.09258 13.7395 6.10586C14.7986 6.11582 15.8213 6.52422 16.5949 7.24804C16.8572 7.49375 17.083 7.76601 17.2723 8.0582C17.3387 8.16113 17.4682 8.20429 17.5811 8.16445C18.1654 7.96191 18.783 7.81914 19.4172 7.75273C19.6031 7.73281 19.7094 7.53359 19.6264 7.36758C18.5473 5.23261 16.3426 3.7584 13.7926 3.71855C10.1104 3.66211 7.04239 6.68027 7.04239 10.3559C7.04239 12.441 8.00196 14.3004 9.50606 15.5189C8.4502 16.007 7.47735 16.6811 6.63399 17.5244C4.81446 19.3406 3.78516 21.7379 3.71876 24.2978C3.71787 24.3333 3.72409 24.3685 3.73704 24.4015C3.74999 24.4345 3.76941 24.4646 3.79417 24.49C3.81892 24.5154 3.84851 24.5355 3.88117 24.5493C3.91384 24.563 3.94893 24.5701 3.98438 24.5701H5.84708C5.98985 24.5701 6.10938 24.4572 6.1127 24.3144C6.17579 22.3887 6.95606 20.5857 8.32735 19.2178C9.30352 18.2416 10.4988 17.5643 11.8037 17.2355C11.9332 17.2023 12.0195 17.0795 12.0029 16.9467Z" fill="#787878"/>
</svg>
