<svg width="24" height="24" viewBox="0 0 24 24" fill="none" xmlns="http://www.w3.org/2000/svg">
<path d="M21.5833 17.5C22.2022 17.5 22.7957 17.2542 23.2332 16.8166C23.6708 16.379 23.9167 15.7855 23.9167 15.1667V2.33333C23.9167 1.71449 23.6708 1.121 23.2332 0.683417C22.7957 0.245833 22.2022 0 21.5833 0H9.28667C9.695 0.711667 9.91667 1.51667 9.91667 2.33333H21.5833V15.1667H11.0833V17.5M15.75 5.83333V8.16667H8.75V23.3333H6.41667V16.3333H4.08333V23.3333H1.75V14H0V8.16667C0 7.54783 0.245833 6.95434 0.683417 6.51675C1.121 6.07917 1.71449 5.83333 2.33333 5.83333H15.75ZM7.58333 2.33333C7.58333 2.95217 7.3375 3.54566 6.89992 3.98325C6.46233 4.42083 5.86884 4.66667 5.25 4.66667C4.63116 4.66667 4.03767 4.42083 3.60008 3.98325C3.1625 3.54566 2.91667 2.95217 2.91667 2.33333C2.91667 1.71449 3.1625 1.121 3.60008 0.683417C4.03767 0.245833 4.63116 0 5.25 0C5.86884 0 6.46233 0.245833 6.89992 0.683417C7.3375 1.121 7.58333 1.71449 7.58333 2.33333Z" fill="#333B45"/>
</svg>
