<svg width="29" height="29" viewBox="0 0 29 29" fill="none" xmlns="http://www.w3.org/2000/svg">
<path d="M23.8026 11.5527C24.6936 14.8888 23.8306 18.5958 21.2132 21.2132M23.8026 11.5527L21.2132 14.1421M23.8026 11.5527L26.3921 14.1421M16.7316 23.8026C13.3954 24.6936 9.68842 23.8306 7.07107 21.2132M16.7316 23.8026L14.1421 21.2132M16.7316 23.8026L14.1421 26.3921M4.48164 16.7316C3.59069 13.3954 4.45371 9.68842 7.07107 7.07107M4.48164 16.7316L7.07107 14.1421M4.48164 16.7316L1.89222 14.1421M11.5527 4.48164C14.8888 3.59069 18.5958 4.45371 21.2132 7.07107M11.5527 4.48164L14.1421 7.07107M11.5527 4.48164L14.1421 1.89222" stroke="#E2E8F0" stroke-width="2" stroke-linecap="round" stroke-linejoin="round"/>
<path d="M16.7316 23.8026C13.3954 24.6936 9.68842 23.8306 7.07107 21.2132M16.7316 23.8026L14.1421 21.2132M16.7316 23.8026L14.1421 26.3921M4.48164 16.7316C3.59069 13.3954 4.45371 9.68842 7.07107 7.07107M4.48164 16.7316L7.07107 14.1421M4.48164 16.7316L1.89222 14.1421M11.5527 4.48164C14.8888 3.59069 18.5958 4.45371 21.2132 7.07107M11.5527 4.48164L14.1421 7.07107M11.5527 4.48164L14.1421 1.89222M23.8026 11.5527C24.6936 14.8888 23.8306 18.5958 21.2132 21.2132M23.8026 11.5527L21.2132 14.1421M23.8026 11.5527L26.3921 14.1421" stroke="#E2E8F0" stroke-width="2" stroke-linecap="round" stroke-linejoin="round"/>
</svg>
