<svg width="28" height="28" viewBox="0 0 28 28" fill="none" xmlns="http://www.w3.org/2000/svg">
<path fill-rule="evenodd" clip-rule="evenodd" d="M19.0459 17.382L25.3226 23.6587C25.5432 23.8795 25.667 24.1788 25.6669 24.4909C25.6668 24.8031 25.5427 25.1023 25.322 25.3229C25.1012 25.5436 24.8018 25.6674 24.4897 25.6673C24.1776 25.6672 23.8783 25.5431 23.6577 25.3224L17.3811 19.0457C15.5047 20.499 13.1452 21.1829 10.7825 20.9583C8.41986 20.7337 6.23149 19.6174 4.66262 17.8366C3.09374 16.0558 2.26221 13.7441 2.33718 11.372C2.41215 8.99986 3.388 6.74537 5.06619 5.06717C6.74439 3.38897 8.99888 2.41313 11.371 2.33816C13.7432 2.26319 16.0548 3.09472 17.8356 4.66359C19.6164 6.23247 20.7327 8.42084 20.9573 10.7835C21.1819 13.1462 20.498 15.5057 19.0447 17.382M11.6667 18.6665C13.5232 18.6665 15.3037 17.929 16.6165 16.6163C17.9292 15.3035 18.6667 13.523 18.6667 11.6665C18.6667 9.81002 17.9292 8.02954 16.6165 6.71678C15.3037 5.40403 13.5232 4.66653 11.6667 4.66653C9.81021 4.66653 8.02973 5.40403 6.71697 6.71678C5.40422 8.02954 4.66672 9.81002 4.66672 11.6665C4.66672 13.523 5.40422 15.3035 6.71697 16.6163C8.02973 17.929 9.81021 18.6665 11.6667 18.6665ZM15.1667 12.8332H12.8334V15.1665C12.8334 15.476 12.7105 15.7727 12.4917 15.9915C12.2729 16.2103 11.9761 16.3332 11.6667 16.3332C11.3573 16.3332 11.0606 16.2103 10.8418 15.9915C10.623 15.7727 10.5001 15.476 10.5001 15.1665V12.8332H8.16672C7.8573 12.8332 7.56056 12.7103 7.34176 12.4915C7.12297 12.2727 7.00005 11.976 7.00005 11.6665C7.00005 11.3571 7.12297 11.0604 7.34176 10.8416C7.56056 10.6228 7.8573 10.4999 8.16672 10.4999H10.5001V8.16653C10.5001 7.85711 10.623 7.56037 10.8418 7.34157C11.0606 7.12278 11.3573 6.99986 11.6667 6.99986C11.9761 6.99986 12.2729 7.12278 12.4917 7.34157C12.7105 7.56037 12.8334 7.85711 12.8334 8.16653V10.4999H15.1667C15.4761 10.4999 15.7729 10.6228 15.9917 10.8416C16.2105 11.0604 16.3334 11.3571 16.3334 11.6665C16.3334 11.976 16.2105 12.2727 15.9917 12.4915C15.7729 12.7103 15.4761 12.8332 15.1667 12.8332Z" fill="#E2E8F0"/>
</svg>
