<svg viewBox="0 0 22.6667 24.7917" fill="none" xmlns="http://www.w3.org/2000/svg" xmlns:xlink="http://www.w3.org/1999/xlink" x="0" y="0"><path id="Vector_3" d="M2.8334,21.9585h4.25v-7.084c0,-0.401 0.136,-0.737 0.408,-1.008c0.272,-0.271 0.6082,-0.407 1.0086,-0.408h5.6667c0.4014,0 0.7381,0.136 1.0101,0.408c0.272,0.272 0.4075,0.608 0.4066,1.008v7.084h4.25v-12.75l-8.5,-6.375l-8.5,6.375zM0,21.9585v-12.75c0,-0.449 0.1006,-0.874 0.3018,-1.275c0.2011,-0.402 0.4783,-0.732 0.8316,-0.992l8.5,-6.375c0.4958,-0.378 1.0625,-0.567 1.7,-0.567c0.6375,0 1.2041,0.189 1.7,0.567l8.5,6.375c0.3541,0.26 0.6318,0.59 0.833,0.992c0.2011,0.401 0.3012,0.826 0.3003,1.275v12.75c0,0.779 -0.2777,1.446 -0.833,2.002c-0.5553,0.555 -1.2221,0.832 -2.0003,0.831h-5.6667c-0.4014,0 -0.7376,-0.136 -1.0087,-0.408c-0.271,-0.272 -0.407,-0.608 -0.408,-1.009v-7.083h-2.8333v7.083c0,0.402 -0.136,0.739 -0.408,1.011c-0.272,0.272 -0.6082,0.407 -1.0087,0.406h-5.6666c-0.7792,0 -1.446,-0.277 -2.0004,-0.831c-0.5544,-0.555 -0.832,-1.222 -0.833,-2.002z" fill="currentColor"/></svg>