<svg viewBox="0 0 61.8333 61.8333" fill="none" xmlns="http://www.w3.org/2000/svg" xmlns:xlink="http://www.w3.org/1999/xlink" x="0" y="0"><path id="Vector_3" d="M57.4165,35.3333h-22.083v22.083c0,1.172 -0.466,2.295 -1.294,3.123c-0.828,0.829 -1.951,1.294 -3.123,1.294c-1.171,0 -2.295,-0.465 -3.123,-1.294c-0.828,-0.828 -1.294,-1.951 -1.294,-3.123v-22.083h-22.083c-1.171,0 -2.295,-0.465 -3.123,-1.294c-0.828,-0.828 -1.294,-1.951 -1.294,-3.123c0,-1.171 0.466,-2.294 1.294,-3.123c0.828,-0.828 1.952,-1.293 3.123,-1.293h22.083v-22.084c0,-1.171 0.466,-2.294 1.294,-3.123c0.828,-0.828 1.952,-1.293 3.123,-1.293c1.172,0 2.295,0.465 3.123,1.293c0.828,0.829 1.294,1.952 1.294,3.123v22.084h22.083c1.172,0 2.295,0.465 3.123,1.293c0.829,0.829 1.294,1.952 1.294,3.123c0,1.172 -0.465,2.295 -1.294,3.123c-0.828,0.829 -1.951,1.294 -3.123,1.294z" fill="currentColor"/></svg>