<svg viewBox="0 0 319 43" fill="none" xmlns="http://www.w3.org/2000/svg" xmlns:xlink="http://www.w3.org/1999/xlink" id="5ecfd35e" x="0" y="0"><g id="프로젝트 대시보드" data-node-id="259:74" clip-path="url(#clip0_259_74)"><g id="Rectangle 3135" data-node-id="259:86" filter="url(#filter3_d_259_74)">
<path d="M0.5,5.5c0,-2.761 2.24,-5 5,-5h308c2.76,0 5,2.239 5,5v32c0,2.761 -2.24,5 -5,5h-308c-2.76,0 -5,-2.239 -5,-5z" fill="#1A1E24"/>
<path d="M5.5,1.5h308c2.21,0 4,1.791 4,4v32c0,2.209 -1.79,4 -4,4h-308c-2.21,0 -4,-1.791 -4,-4v-32c0,-2.209 1.79,-4 4,-4z" stroke="#333B45" stroke-width="2"/>
</g><g id="material-symbols:search-rounded" data-node-id="259:116">
<path id="Vector_4" data-node-id="259:117" d="M288.38,26.5c-2.28,0 -4.2,-0.787 -5.77,-2.36c-1.57,-1.573 -2.36,-3.495 -2.36,-5.765c0,-2.27 0.79,-4.192 2.36,-5.765c1.57,-1.573 3.5,-2.36 5.77,-2.36c2.26,0 4.19,0.787 5.76,2.36c1.58,1.573 2.36,3.495 2.36,5.765c0,0.917 -0.15,1.781 -0.44,2.594c-0.29,0.812 -0.68,1.531 -1.18,2.156l7,7c0.22,0.229 0.34,0.521 0.34,0.875c0,0.354 -0.12,0.646 -0.34,0.875c-0.23,0.229 -0.53,0.344 -0.88,0.344c-0.35,0 -0.65,-0.115 -0.88,-0.344l-6.99,-7c-0.63,0.5 -1.35,0.896 -2.16,1.187c-0.81,0.292 -1.68,0.438 -2.59,0.438zM288.38,24c1.56,0 2.89,-0.547 3.98,-1.64c1.09,-1.093 1.64,-2.422 1.64,-3.985c0,-1.563 -0.55,-2.891 -1.64,-3.984c-1.09,-1.092 -2.42,-1.639 -3.98,-1.641c-1.57,-0.002 -2.9,0.545 -3.99,1.641c-1.09,1.096 -1.64,2.424 -1.64,3.984c0,1.56 0.54,2.888 1.64,3.985c1.1,1.097 2.43,1.643 3.99,1.64z" fill="#F8FAFC"/>
</g></g><defs><filter id="filter3_d_259_74" x="-7.5" y="-3.5" width="334" height="58" filterUnits="userSpaceOnUse" color-interpolation-filters="sRGB">
<feFlood flood-opacity="0" result="BackgroundImageFix"/>
<feColorMatrix in="SourceAlpha" type="matrix" values="0 0 0 0 0 0 0 0 0 0 0 0 0 0 0 0 0 0 127 0" result="hardAlpha"/>
<feOffset dy="4"/>
<feGaussianBlur stdDeviation="4"/>
<feComposite in2="hardAlpha" operator="out"/>
<feColorMatrix type="matrix" values="0 0 0 0 0 0 0 0 0 0 0 0 0 0 0 0 0 0 0.25 0"/>
<feBlend mode="normal" in2="BackgroundImageFix" result="effect1_dropShadow_259_74"/>
<feBlend mode="normal" in="SourceGraphic" in2="effect1_dropShadow_259_74" result="shape"/>
</filter><clipPath id="clip0_259_74">
<rect width="1920" height="1080" fill="white" x="-1552.5" y="-311.5"/>
</clipPath></defs></svg>