<svg viewBox="0 0 27.8359 28.3372" fill="none" xmlns="http://www.w3.org/2000/svg" xmlns:xlink="http://www.w3.org/1999/xlink" x="0" y="0"><path id="Vector_7" d="M25.5616,15.1035c-0.2271,-0.258 -0.3524,-0.591 -0.3524,-0.935c0,-0.344 0.1253,-0.676 0.3524,-0.935l1.8133,-2.04c0.1998,-0.223 0.3239,-0.503 0.3545,-0.801c0.0305,-0.298 -0.0341,-0.598 -0.1845,-0.856l-2.8333,-4.902c-0.1489,-0.259 -0.3756,-0.463 -0.6478,-0.586c-0.2722,-0.122 -0.576,-0.155 -0.8681,-0.094l-2.6633,0.538c-0.3389,0.07 -0.6917,0.014 -0.9918,-0.158c-0.3001,-0.173 -0.5269,-0.449 -0.6374,-0.777l-0.8641,-2.592c-0.0951,-0.282 -0.2761,-0.526 -0.5176,-0.699c-0.2415,-0.173 -0.5313,-0.265 -0.8283,-0.265h-5.6666c-0.3089,-0.016 -0.6147,0.07 -0.8705,0.244c-0.2558,0.174 -0.4476,0.427 -0.5462,0.72l-0.7933,2.592c-0.1105,0.328 -0.3372,0.604 -0.6374,0.777c-0.3001,0.172 -0.6529,0.228 -0.9918,0.158l-2.7342,-0.538c-0.2768,-0.039 -0.5591,0.005 -0.8112,0.126c-0.2521,0.121 -0.4628,0.313 -0.6054,0.554l-2.8334,4.902c-0.1541,0.256 -0.2235,0.554 -0.198,0.851c0.0254,0.298 0.1443,0.58 0.3397,0.806l1.7992,2.04c0.2271,0.259 0.3524,0.591 0.3524,0.935c0,0.344 -0.1253,0.677 -0.3524,0.935l-1.7992,2.04c-0.1954,0.226 -0.3143,0.508 -0.3397,0.806c-0.0255,0.298 0.0439,0.596 0.198,0.852l2.8334,4.901c0.1489,0.259 0.3756,0.464 0.6478,0.586c0.2721,0.122 0.5759,0.155 0.868,0.094l2.6633,-0.538c0.3389,-0.07 0.6917,-0.014 0.9919,0.159c0.3001,0.172 0.5268,0.448 0.6373,0.776l0.8642,2.592c0.0986,0.294 0.2904,0.547 0.5462,0.721c0.2558,0.173 0.5615,0.259 0.8704,0.243h5.6667c0.297,0.001 0.5867,-0.092 0.8282,-0.265c0.2415,-0.173 0.4226,-0.417 0.5176,-0.699l0.8642,-2.592c0.1105,-0.328 0.3372,-0.604 0.6374,-0.776c0.3001,-0.173 0.6529,-0.229 0.9918,-0.159l2.6633,0.538c0.2921,0.061 0.5959,0.028 0.8681,-0.094c0.2722,-0.122 0.4989,-0.327 0.6478,-0.586l2.8333,-4.901c0.1504,-0.259 0.215,-0.559 0.1844,-0.857c-0.0305,-0.298 -0.1546,-0.578 -0.3544,-0.801zM23.4507,17.0015l1.1334,1.275l-1.8133,3.145l-1.6717,-0.34c-1.0203,-0.208 -2.0817,-0.035 -2.9827,0.488c-0.9009,0.522 -1.5788,1.357 -1.9048,2.346l-0.5384,1.586h-3.6266l-0.51,-1.615c-0.3261,-0.989 -1.0039,-1.824 -1.9049,-2.346c-0.9009,-0.522 -1.9623,-0.695 -2.9826,-0.487l-1.6717,0.34l-1.8417,-3.131l1.1334,-1.275c0.6969,-0.779 1.0822,-1.788 1.0822,-2.833c0,-1.045 -0.3853,-2.054 -1.0822,-2.833l-1.1334,-1.275l1.8134,-3.117l1.6716,0.34c1.0204,0.209 2.0817,0.035 2.9827,-0.487c0.901,-0.522 1.5788,-1.357 1.9048,-2.346l0.5384,-1.601h3.6266l0.5384,1.615c0.326,0.989 1.0039,1.824 1.9048,2.346c0.901,0.522 1.9624,0.696 2.9827,0.487l1.6717,-0.34l1.8133,3.145l-1.1334,1.275c-0.6891,0.778 -1.0696,1.78 -1.0696,2.819c0,1.039 0.3805,2.042 1.0696,2.819zM13.8599,8.5015c-1.1207,0 -2.2163,0.333 -3.1482,0.955c-0.9319,0.623 -1.6582,1.508 -2.0871,2.544c-0.4289,1.035 -0.5411,2.174 -0.3225,3.274c0.2187,1.099 0.7584,2.109 1.5509,2.901c0.7925,0.793 1.8022,1.332 2.9014,1.551c1.0992,0.219 2.2386,0.106 3.2741,-0.323c1.0354,-0.428 1.9204,-1.155 2.5431,-2.087c0.6226,-0.932 0.955,-2.027 0.955,-3.148c0,-1.503 -0.597,-2.944 -1.6597,-4.007c-1.0628,-1.063 -2.5041,-1.66 -4.007,-1.66zM13.8599,17.0015c-0.5604,0 -1.1082,-0.166 -1.5741,-0.477c-0.4659,-0.311 -0.8291,-0.754 -1.0435,-1.272c-0.2145,-0.517 -0.2706,-1.087 -0.1613,-1.637c0.1093,-0.549 0.3792,-1.054 0.7754,-1.45c0.3963,-0.397 0.9011,-0.666 1.4508,-0.776c0.5496,-0.109 1.1193,-0.053 1.637,0.161c0.5177,0.215 0.9602,0.578 1.2715,1.044c0.3114,0.466 0.4775,1.014 0.4775,1.574c0,0.752 -0.2985,1.472 -0.8298,2.004c-0.5314,0.531 -1.252,0.829 -2.0035,0.829z" fill="currentColor"/></svg>