<svg viewBox="0 0 52 50.6188" fill="none" xmlns="http://www.w3.org/2000/svg" xmlns:xlink="http://www.w3.org/1999/xlink" x="0" y="0"><path id="Vector" d="M6.5,50.6187c-1.79,0 -3.32,-0.636 -4.59,-1.908c-1.27,-1.271 -1.91,-2.802 -1.91,-4.592v-6.5c0,-0.921 0.31,-1.692 0.94,-2.314c0.62,-0.622 1.39,-0.934 2.31,-0.936c0.92,-0.002 1.69,0.31 2.32,0.936c0.62,0.626 0.93,1.398 0.93,2.314v6.5h39v-6.5c0,-0.921 0.31,-1.692 0.94,-2.314c0.62,-0.622 1.39,-0.934 2.31,-0.936c0.92,-0.002 1.69,0.31 2.32,0.936c0.62,0.626 0.93,1.398 0.93,2.314v6.5c0,1.788 -0.64,3.318 -1.91,4.592c-1.27,1.274 -2.8,1.91 -4.59,1.908zM22.75,11.1317l-6.09,6.093c-0.65,0.65 -1.43,0.962 -2.32,0.936c-0.89,-0.026 -1.66,-0.365 -2.31,-1.017c-0.6,-0.65 -0.91,-1.408 -0.94,-2.275c-0.03,-0.867 0.28,-1.625 0.94,-2.275l11.7,-11.7c0.32,-0.325 0.67,-0.555 1.05,-0.689c0.38,-0.134 0.79,-0.202 1.22,-0.205c0.43,-0.002 0.84,0.066 1.22,0.205c0.38,0.139 0.73,0.368 1.06,0.689l11.7,11.7c0.64,0.65 0.96,1.408 0.93,2.275c-0.02,0.867 -0.34,1.625 -0.93,2.275c-0.65,0.65 -1.43,0.989 -2.32,1.017c-0.89,0.029 -1.66,-0.283 -2.32,-0.936l-6.09,-6.093v23.237c0,0.921 -0.31,1.693 -0.94,2.317c-0.62,0.624 -1.39,0.935 -2.31,0.933c-0.92,-0.002 -1.69,-0.314 -2.31,-0.936c-0.63,-0.622 -0.94,-1.393 -0.94,-2.314z" fill="currentColor"/></svg>