<svg viewBox="0 0 26.5627 26.5633" fill="none" xmlns="http://www.w3.org/2000/svg" xmlns:xlink="http://www.w3.org/1999/xlink" x="0" y="0"><path id="Vector_4" d="M23.6474,19.5212c-0.8311,-0.832 -1.8022,-1.511 -2.8688,-2.006c1.5041,-1.218 2.4637,-3.078 2.4637,-5.163c0,-3.679 -3.068,-6.697 -6.7469,-6.641c-3.6224,0.057 -6.541,3.009 -6.541,6.641c0,2.085 0.9629,3.945 2.4637,5.163c-1.0668,0.495 -2.0379,1.174 -2.8688,2.006c-1.8129,1.816 -2.8422,4.213 -2.9086,6.77c-0.0009,0.035 0.0054,0.07 0.0183,0.103c0.013,0.033 0.0324,0.064 0.0571,0.089c0.0248,0.025 0.0544,0.045 0.0871,0.059c0.0326,0.014 0.0677,0.021 0.1032,0.021h1.8593c0.1428,0 0.2623,-0.113 0.2657,-0.256c0.063,-1.925 0.8433,-3.728 2.2146,-5.096c0.7017,-0.706 1.5364,-1.265 2.4557,-1.646c0.9193,-0.38 1.905,-0.575 2.9,-0.572c2.022,0 3.9246,0.787 5.3556,2.218c1.368,1.368 2.1483,3.171 2.2147,5.096c0.0033,0.143 0.1228,0.256 0.2656,0.256h1.8594c0.0354,0 0.0705,-0.007 0.1032,-0.021c0.0327,-0.014 0.0622,-0.034 0.087,-0.059c0.0248,-0.025 0.0442,-0.056 0.0571,-0.089c0.013,-0.033 0.0192,-0.068 0.0183,-0.103c-0.0664,-2.557 -1.0957,-4.954 -2.9152,-6.77zM16.6017,16.6022c-1.1356,0 -2.2047,-0.441 -3.0049,-1.245c-0.4016,-0.398 -0.7188,-0.874 -0.9327,-1.397c-0.2139,-0.524 -0.3202,-1.085 -0.3124,-1.651c0.0099,-1.089 0.4449,-2.142 1.2052,-2.922c0.7969,-0.817 1.8627,-1.272 3.0016,-1.285c1.1256,-0.01 2.218,0.428 3.0215,1.215c0.8234,0.807 1.275,1.886 1.275,3.035c0,1.136 -0.4416,2.201 -1.2451,3.005c-0.3942,0.396 -0.8631,0.71 -1.3794,0.924c-0.5164,0.214 -1.07,0.323 -1.6288,0.321zM8.2843,13.2292c-0.0299,-0.289 -0.0465,-0.581 -0.0465,-0.877c0,-0.528 0.0498,-1.042 0.1428,-1.544c0.0232,-0.119 -0.0399,-0.242 -0.1494,-0.292c-0.4516,-0.203 -0.8666,-0.481 -1.2252,-0.833c-0.4226,-0.41 -0.7551,-0.903 -0.9763,-1.449c-0.2213,-0.545 -0.3264,-1.131 -0.3087,-1.719c0.0299,-1.066 0.4582,-2.079 1.2053,-2.842c0.8201,-0.84 1.9224,-1.298 3.0945,-1.285c1.0592,0.01 2.0818,0.418 2.8555,1.142c0.2623,0.246 0.4881,0.518 0.6773,0.81c0.0664,0.103 0.1959,0.146 0.3088,0.106c0.5844,-0.202 1.202,-0.345 1.8361,-0.411c0.186,-0.02 0.2922,-0.219 0.2092,-0.385c-1.0791,-2.135 -3.2838,-3.61 -5.8338,-3.649c-3.6822,-0.057 -6.7502,2.961 -6.7502,6.637c0,2.085 0.9596,3.944 2.4637,5.163c-1.0558,0.488 -2.0287,1.162 -2.8721,2.005c-1.8195,1.817 -2.8488,4.214 -2.9152,6.774c-0.0009,0.035 0.0053,0.071 0.0183,0.104c0.0129,0.033 0.0324,0.063 0.0571,0.088c0.0248,0.025 0.0544,0.046 0.087,0.059c0.0327,0.014 0.0678,0.021 0.1032,0.021h1.8627c0.1428,0 0.2623,-0.113 0.2657,-0.256c0.063,-1.925 0.8433,-3.728 2.2146,-5.096c0.9762,-0.976 2.1715,-1.654 3.4764,-1.982c0.1295,-0.034 0.2158,-0.157 0.1992,-0.289z" fill="currentColor"/></svg>