<svg width="62" height="62" viewBox="0 0 62 62" fill="none" xmlns="http://www.w3.org/2000/svg">
<path d="M57.4167 35.3333H35.3333V57.4167C35.3333 58.588 34.868 59.7114 34.0397 60.5397C33.2114 61.368 32.088 61.8333 30.9167 61.8333C29.7453 61.8333 28.6219 61.368 27.7936 60.5397C26.9653 59.7114 26.5 58.588 26.5 57.4167V35.3333H4.41667C3.24529 35.3333 2.1219 34.868 1.29361 34.0397C0.465327 33.2114 0 32.088 0 30.9167C0 29.7453 0.465327 28.6219 1.29361 27.7936C2.1219 26.9653 3.24529 26.5 4.41667 26.5H26.5V4.41667C26.5 3.24529 26.9653 2.1219 27.7936 1.29361C28.6219 0.465325 29.7453 0 30.9167 0C32.088 0 33.2114 0.465325 34.0397 1.29361C34.868 2.1219 35.3333 3.24529 35.3333 4.41667V26.5H57.4167C58.588 26.5 59.7114 26.9653 60.5397 27.7936C61.368 28.6219 61.8333 29.7453 61.8333 30.9167C61.8333 32.088 61.368 33.2114 60.5397 34.0397C59.7114 34.868 58.588 35.3333 57.4167 35.3333Z" fill="#64748B"/>
</svg>
